<svg width="22" height="22" viewBox="0 0 22 22" fill="none" xmlns="http://www.w3.org/2000/svg">
<g clip-path="url(#clip0_394_40)">
<path d="M9.16699 11.9165C9.56066 12.4428 10.0629 12.8782 10.6397 13.1933C11.2164 13.5084 11.8542 13.6958 12.5098 13.7428C13.1653 13.7897 13.8233 13.6951 14.4391 13.4654C15.0548 13.2357 15.614 12.8763 16.0787 12.4115L18.8287 9.66147C19.6636 8.79705 20.1255 7.63929 20.1151 6.43755C20.1046 5.23581 19.6226 4.08626 18.7728 3.23647C17.923 2.38668 16.7735 1.90466 15.5717 1.89422C14.37 1.88377 13.2123 2.34575 12.3478 3.18064L10.7712 4.74814" stroke="#4473C5" stroke-width="2" stroke-linecap="round" stroke-linejoin="round"/>
<path d="M12.833 10.0831C12.4394 9.55685 11.9371 9.12138 11.3604 8.80627C10.7836 8.49116 10.1458 8.30378 9.49027 8.25683C8.83472 8.20988 8.17674 8.30446 7.56096 8.53417C6.94518 8.76387 6.38601 9.12332 5.92136 9.58813L3.17136 12.3381C2.33647 13.2026 1.8745 14.3603 1.88494 15.5621C1.89538 16.7638 2.37741 17.9133 3.22719 18.7631C4.07698 19.6129 5.22654 20.0949 6.42827 20.1054C7.63001 20.1158 8.78777 19.6539 9.65219 18.819L11.2197 17.2515" stroke="#4473C5" stroke-width="2" stroke-linecap="round" stroke-linejoin="round"/>
</g>
<defs>
<clipPath id="clip0_394_40">
<rect width="22" height="22" fill="white"/>
</clipPath>
</defs>
</svg>
